<svg version="1.1" id="Layer_1" xmlns="http://www.w3.org/2000/svg" xmlns:xlink="http://www.w3.org/1999/xlink" x="0px" y="0px"
	 width="100%" viewBox="0 0 500 500" enable-background="new 0 0 500 500" xml:space="preserve">
<path fill="#FDF5F3" opacity="1.000000" stroke="none" 
	d="
M331.000000,501.000000 
	C222.000031,501.000000 113.500031,500.979279 5.000180,501.095398 
	C1.576357,501.099060 0.903033,500.423889 0.905298,497.000031 
	C1.013776,333.000122 1.013757,169.000153 0.905339,5.000259 
	C0.903075,1.576987 1.575755,0.903019 4.999864,0.905285 
	C168.999756,1.013775 332.999725,1.013760 496.999634,0.905354 
	C500.422638,0.903092 501.096985,1.575407 501.094727,4.999744 
	C500.986206,168.999634 500.986237,332.999603 501.094604,496.999512 
	C501.096893,500.422272 500.426117,501.105774 497.000183,501.097229 
	C441.833710,500.959534 386.666809,501.000000 331.000000,501.000000 
z"/>
<path fill="#090909" opacity="1.000000" stroke="none" 
	d="
M381.023499,146.983307 
	C398.542694,153.980591 411.396576,164.947647 415.264252,183.920563 
	C418.325012,198.934952 416.732056,213.285309 408.245819,226.549332 
	C405.910614,230.199265 403.343719,232.034500 398.933319,231.494354 
	C396.023682,231.137985 393.034943,231.426926 389.031372,231.426926 
	C395.395844,225.860489 400.428589,220.460388 402.589935,213.120712 
	C407.754730,195.581650 405.596649,170.933823 379.743286,160.077759 
	C367.590302,154.974594 354.911285,152.750793 341.859833,152.589233 
	C325.869476,152.391281 309.872375,152.695801 293.883728,152.438217 
	C289.685913,152.370590 289.094330,153.939850 289.117371,157.588165 
	C289.262543,180.576874 289.106995,203.567581 289.275055,226.555984 
	C289.302490,230.308426 288.571625,231.742065 284.473969,231.533356 
	C277.472473,231.176712 277.458160,231.456100 277.458160,224.241119 
	C277.458160,197.753067 277.529114,171.264603 277.376099,144.777435 
	C277.354889,141.108704 278.203003,139.974152 282.044159,140.050995 
	C305.679413,140.523956 329.339233,139.365891 352.957611,141.008942 
	C362.443939,141.668884 371.735199,143.436218 381.023499,146.983307 
z"/>
<path fill="#080808" opacity="1.000000" stroke="none" 
	d="
M409.841187,295.621399 
	C408.340088,285.721863 404.679230,277.368958 396.322906,270.102020 
	C402.242920,270.102020 406.962677,270.095123 411.682434,270.104797 
	C414.238647,270.110016 414.835938,272.319550 415.757050,273.973297 
	C432.138184,303.384064 418.834045,339.670258 387.283203,352.035797 
	C372.148224,357.967529 356.313721,359.585785 340.300262,359.795349 
	C320.804565,360.050507 301.302246,359.765350 281.804749,359.939056 
	C278.262146,359.970612 277.368744,358.939240 277.386230,355.477844 
	C277.522552,328.479889 277.559937,301.480194 277.356476,274.483093 
	C277.325653,270.394745 278.855042,269.921661 282.274933,270.024902 
	C289.183350,270.233521 289.188568,270.064362 289.188599,276.755371 
	C289.188690,298.754272 289.264496,320.753693 289.108795,342.751465 
	C289.084839,346.137482 289.805817,347.275177 293.401215,347.228943 
	C311.729492,346.993225 330.064270,347.217285 348.390900,346.919312 
	C360.234955,346.726776 371.928864,345.021393 383.143921,340.970795 
	C402.496948,333.980957 410.812134,321.615875 410.132324,301.057068 
	C410.077301,299.393158 409.960236,297.731293 409.841187,295.621399 
z"/>
<path fill="#040404" opacity="1.000000" stroke="none" 
	d="
M98.533401,199.845642 
	C99.472260,217.216812 111.232536,224.822540 124.747078,231.394882 
	C117.181099,231.394882 109.614868,231.430161 102.049248,231.378510 
	C98.764709,231.356094 97.146988,228.705872 95.432724,226.568253 
	C84.148621,212.497162 83.542023,196.615921 88.699120,180.303421 
	C94.965683,160.481598 109.561165,148.432602 128.654343,142.340622 
	C151.565506,135.030472 174.679916,135.411301 196.671600,146.073425 
	C215.299240,155.104553 226.938492,170.012695 230.585434,190.698578 
	C231.902740,198.170563 231.841003,197.789795 224.495636,198.304520 
	C219.042328,198.686676 217.446472,197.049194 216.634537,191.510559 
	C214.397797,176.252243 206.145279,164.386368 192.137527,157.842377 
	C166.307053,145.775162 140.757690,146.990662 116.724503,162.740463 
	C103.837608,171.185684 97.869324,183.835083 98.533401,199.845642 
z"/>
<path fill="#050505" opacity="1.000000" stroke="none" 
	d="
M229.514313,329.494293 
	C222.437469,343.077271 211.387115,351.562317 197.572205,356.302704 
	C169.527191,365.925964 141.611252,365.508759 114.574730,352.822662 
	C94.918571,343.599548 82.365883,326.334351 79.251678,306.278015 
	C79.733627,306.186554 80.217049,306.016907 80.701004,306.015350 
	C84.197472,306.003998 87.987587,305.179260 91.113228,306.261902 
	C94.687820,307.500092 93.875427,312.152954 95.202499,315.205597 
	C102.836624,332.766296 116.740959,342.859985 134.588821,347.566742 
	C158.117249,353.771545 181.240753,352.610565 202.495209,339.624268 
	C227.128738,324.573395 229.501404,291.042328 207.720413,271.980865 
	C207.349289,271.656067 207.038574,271.262268 205.964203,270.115875 
	C212.053268,270.115875 217.401581,270.080872 222.749008,270.135376 
	C224.555145,270.153778 225.115555,271.779572 225.854156,273.020386 
	C236.607391,291.085083 238.521530,309.770111 229.514313,329.494293 
z"/>
<path fill="#1B1A1A" opacity="1.000000" stroke="none" 
	d="
M325.267334,246.592590 
	C326.053528,249.113876 326.730072,251.247406 327.406586,253.380920 
	C327.734467,253.413834 328.062347,253.446732 328.390228,253.479645 
	C329.302856,250.229904 330.066010,246.926926 331.195862,243.754547 
	C331.703491,242.329132 331.248993,239.851028 333.354309,239.720718 
	C335.701904,239.575439 335.141296,242.166611 335.636536,243.536667 
	C336.802368,246.761658 337.585175,250.125107 338.783936,254.352966 
	C341.212463,250.032562 341.600067,245.977646 342.872406,242.252701 
	C343.303528,240.990524 343.462952,239.140976 345.152344,239.695282 
	C347.058624,240.320724 345.606384,241.914871 345.293945,243.037369 
	C343.915985,247.988098 342.453186,252.915176 341.055511,257.860535 
	C340.778503,258.840546 340.608337,259.863953 339.367554,260.015503 
	C337.724243,260.216248 337.531158,258.858307 337.216492,257.797272 
	C336.056091,253.884293 334.966400,249.950348 333.457397,244.643143 
	C331.895691,249.980072 330.775696,253.937607 329.558197,257.864899 
	C329.294769,258.714569 329.322662,259.952148 327.930908,260.017029 
	C326.338379,260.091278 326.182312,258.933075 325.853516,257.764862 
	C324.416412,252.659134 322.877838,247.581985 321.436218,242.477493 
	C321.160278,241.500412 320.124878,240.059128 321.924988,239.648651 
	C323.363068,239.320740 323.753082,240.679138 324.028107,241.874100 
	C324.362579,243.327347 324.777527,244.762085 325.267334,246.592590 
z"/>
<path fill="#1C1B1B" opacity="1.000000" stroke="none" 
	d="
M277.475891,247.246887 
	C276.341125,248.628036 275.435242,249.162598 276.978424,250.957413 
	C280.364075,254.895081 278.491699,259.087433 273.272491,259.860931 
	C270.986267,260.199738 268.612854,259.901428 266.293976,260.083160 
	C264.154602,260.250763 263.862549,259.171906 263.890686,257.397583 
	C263.969879,252.403275 263.992676,247.405258 263.882660,242.412125 
	C263.837250,240.351334 264.349579,239.260040 266.633240,239.467041 
	C268.452698,239.631973 270.299011,239.504044 272.117676,239.674362 
	C276.521240,240.086761 278.989838,242.076797 277.475891,247.246887 
z"/>
<path fill="#151514" opacity="1.000000" stroke="none" 
	d="
M164.262665,257.716522 
	C169.012115,258.363495 170.804886,256.180908 170.802979,252.084015 
	C170.801361,248.589493 170.803101,245.094986 170.807175,241.600464 
	C170.808136,240.763901 170.803528,239.766769 171.830582,239.634781 
	C173.191101,239.459930 173.415833,240.515015 173.397995,241.585876 
	C173.323196,246.074875 173.453262,250.582199 173.077637,255.046570 
	C172.778503,258.601593 170.197845,260.042297 166.803864,260.179657 
	C163.263489,260.322906 159.939972,259.871460 158.927994,255.769226 
	C157.758698,251.029175 158.520996,246.156296 158.365265,241.344070 
	C158.335190,240.414703 158.732986,239.663437 159.720459,239.613449 
	C161.181213,239.539536 161.144775,240.680695 161.149139,241.679688 
	C161.163666,245.007736 161.169220,248.335968 161.151688,251.663971 
	C161.139038,254.064224 161.301178,256.365570 164.262665,257.716522 
z"/>
<path fill="#1F1E1D" opacity="1.000000" stroke="none" 
	d="
M193.968445,252.580261 
	C194.807968,254.644089 195.542938,256.316010 196.228149,258.008087 
	C196.489243,258.652893 197.455551,259.475403 196.094177,259.934082 
	C195.313721,260.197052 194.393295,260.160767 193.965225,259.216827 
	C193.210587,257.552704 192.376038,255.904648 191.834579,254.168854 
	C191.048798,251.649734 189.461227,250.898788 186.949280,251.173584 
	C183.734116,251.525299 185.514359,253.906540 185.141113,255.367188 
	C184.901199,256.306152 185.098419,257.354645 185.083084,258.353790 
	C185.069748,259.221619 184.934479,260.033203 183.793900,260.005005 
	C182.762619,259.979553 182.351273,259.334381 182.349533,258.384766 
	C182.339142,252.721954 182.314697,247.058914 182.371628,241.396713 
	C182.377319,240.830658 182.753571,240.075699 183.204636,239.741226 
	C184.858475,238.514877 194.366058,239.697968 195.641846,241.399673 
	C198.255753,244.886276 197.344238,247.890594 194.039856,250.419464 
	C193.424225,250.890594 193.510330,251.558960 193.968445,252.580261 
z"/>
<path fill="#1B1A1A" opacity="1.000000" stroke="none" 
	d="
M300.449890,241.534363 
	C305.635162,238.472687 310.515869,238.778290 312.728577,242.142899 
	C313.234070,242.911560 314.669098,244.038910 313.010925,245.001709 
	C312.070526,245.547775 311.225464,245.125656 310.673004,243.963089 
	C309.534424,241.566971 307.337036,241.557831 305.108124,241.853928 
	C303.495880,242.068100 302.228180,242.786118 301.989716,244.543457 
	C301.734619,246.422989 303.035614,247.244843 304.532654,247.698975 
	C306.433228,248.275528 308.444183,248.522110 310.300018,249.203735 
	C312.665131,250.072433 314.066559,251.815781 314.082153,254.492950 
	C314.098206,257.243317 312.474976,258.994873 310.163177,259.661133 
	C306.382019,260.750885 302.556885,260.817200 299.631104,257.431610 
	C299.015472,256.719238 298.135803,255.760406 299.155334,254.869492 
	C300.116974,254.029175 301.033112,254.731323 301.618469,255.619781 
	C303.256500,258.105865 305.683502,258.297211 308.228210,257.807373 
	C309.729065,257.518463 311.045135,256.728516 311.162079,254.900650 
	C311.277832,253.091232 310.216583,252.152176 308.651703,251.676102 
	C307.070953,251.195206 305.445740,250.857834 303.871735,250.357788 
	C298.872101,248.769485 298.083557,246.907013 300.449890,241.534363 
z"/>
<path fill="#1F1E1E" opacity="1.000000" stroke="none" 
	d="
M116.065819,241.820190 
	C113.803650,242.260696 112.590591,243.254089 112.815201,245.285385 
	C113.017860,247.118164 114.581223,247.508850 116.032867,247.898773 
	C117.633133,248.328598 119.286346,248.591782 120.848457,249.126358 
	C123.475189,250.025253 124.976715,251.930756 124.875732,254.749146 
	C124.780876,257.396667 123.090584,259.116028 120.702469,259.746368 
	C117.058876,260.708008 113.394691,260.738434 110.551376,257.663086 
	C109.894028,256.952087 108.541855,255.917358 109.922997,254.810425 
	C110.813087,254.097031 111.721901,254.658615 112.377449,255.638489 
	C114.002357,258.067230 116.459572,258.335602 119.014893,257.789978 
	C120.484138,257.476288 121.849754,256.702759 121.969025,254.880692 
	C122.088402,253.056915 120.944054,252.160156 119.406509,251.688339 
	C117.509827,251.106293 115.566917,250.674484 113.671684,250.088226 
	C111.216606,249.328766 109.687675,247.828629 109.806549,245.034500 
	C109.920158,242.364105 111.361084,240.726624 113.753891,239.878067 
	C117.537819,238.536209 120.971436,239.032852 123.637611,242.251587 
	C124.198410,242.928635 124.900558,244.078369 123.904465,244.886551 
	C122.972694,245.642532 122.010841,245.186874 121.497330,244.116364 
	C120.456032,241.945618 118.572655,241.636627 116.065819,241.820190 
z"/>
<path fill="#1F1E1E" opacity="1.000000" stroke="none" 
	d="
M385.003967,239.185425 
	C387.937103,239.449936 390.330322,240.098541 391.764526,242.450439 
	C392.232727,243.218216 392.917175,244.326569 391.716980,245.035767 
	C390.973907,245.474838 390.077301,245.232132 389.632019,244.326126 
	C388.826660,242.687515 387.567719,241.747864 385.712677,241.758865 
	C383.691986,241.770828 381.460632,241.724350 380.902008,244.247116 
	C380.293640,246.994812 382.459412,247.500015 384.458466,247.982162 
	C385.103149,248.137665 385.740631,248.325821 386.389160,248.462128 
	C389.643494,249.146149 392.593719,250.263000 392.868103,254.197800 
	C393.070740,257.104065 391.329712,259.009979 388.751038,259.720825 
	C384.930908,260.773895 381.110260,260.736237 378.263458,257.325012 
	C377.766113,256.729126 376.639343,255.710373 377.872345,254.826660 
	C378.816223,254.150162 379.685486,254.615494 380.345367,255.605286 
	C381.964020,258.032959 384.406555,258.335358 386.973969,257.799103 
	C388.452362,257.490295 389.818665,256.731293 389.964966,254.920395 
	C390.112091,253.099640 388.981537,252.201950 387.441589,251.701233 
	C386.500885,251.395386 385.513458,251.235413 384.566437,250.946320 
	C381.446259,249.993866 377.671967,249.674088 377.840271,245.067245 
	C377.996490,240.790466 381.143219,239.746567 385.003967,239.185425 
z"/>
<path fill="#1B1A1A" opacity="1.000000" stroke="none" 
	d="
M143.286102,260.072998 
	C138.748642,260.661255 135.190704,259.632050 133.403961,255.534576 
	C131.434464,251.017929 131.470367,246.383224 134.495285,242.301453 
	C137.710205,237.963303 144.672867,238.142303 147.929245,242.416321 
	C152.264450,248.106339 150.146118,256.825256 143.286102,260.072998 
z"/>
<path fill="#151515" opacity="1.000000" stroke="none" 
	d="
M219.843414,253.983521 
	C220.052841,254.670563 220.191284,254.984100 220.229370,255.309387 
	C220.410614,256.857483 222.717316,258.844421 220.714905,259.773682 
	C218.516693,260.793793 218.473938,257.922333 218.050247,256.576324 
	C217.280945,254.132309 215.483505,254.275330 213.664978,254.405441 
	C211.669907,254.548203 209.170868,253.449951 208.160858,256.394165 
	C207.838425,257.334076 207.489120,258.266296 207.111755,259.185455 
	C206.695663,260.198914 205.813950,260.156158 205.026505,259.867981 
	C204.131485,259.540405 204.605911,258.825409 204.807129,258.261841 
	C206.868301,252.488968 208.951889,246.724060 210.998795,240.946136 
	C211.410416,239.784164 212.284576,239.511246 213.336288,239.555328 
	C214.541092,239.605804 214.898239,240.476562 215.257782,241.489853 
	C216.698212,245.549118 218.228882,249.576355 219.843414,253.983521 
z"/>
<path fill="#151514" opacity="1.000000" stroke="none" 
	d="
M369.865509,259.037262 
	C367.623810,261.017090 367.055389,259.271667 366.670166,257.598785 
	C366.013977,254.749344 364.187927,254.225021 361.545013,254.310883 
	C358.932983,254.395752 356.584503,254.299561 355.967590,257.628571 
	C355.726929,258.927094 355.083374,260.573578 353.434204,259.856201 
	C351.991241,259.228516 353.192596,257.838287 353.537079,256.862152 
	C355.295166,251.880310 357.153076,246.933609 358.900574,241.948120 
	C359.370972,240.606049 359.823334,239.482544 361.534760,239.532303 
	C363.107544,239.578049 363.321533,240.889053 363.695740,241.890060 
	C365.776886,247.456619 367.769623,253.056229 369.865509,259.037262 
z"/>
<path fill="#1B1A1A" opacity="1.000000" stroke="none" 
	d="
M228.842010,239.920609 
	C231.687149,239.250473 231.426987,241.573364 231.940430,242.895660 
	C233.531708,246.993683 234.910782,251.174118 236.855972,256.695709 
	C238.946457,250.877701 240.548737,246.283752 242.270691,241.735123 
	C242.632126,240.780365 242.843567,239.051880 244.471512,239.685043 
	C246.129166,240.329758 244.976715,241.710724 244.655212,242.646881 
	C242.937744,247.648071 241.083878,252.602234 239.330246,257.591309 
	C238.881836,258.867096 238.641418,260.047211 236.823380,260.091553 
	C234.888901,260.138733 234.749832,258.689728 234.359879,257.543243 
	C232.393921,251.763123 230.518097,245.952332 228.842010,239.920609 
z"/>
<path fill="#252323" opacity="1.000000" stroke="none" 
	d="
M287.056854,241.688385 
	C287.115021,240.078598 287.641052,239.342041 288.901611,239.651154 
	C290.217468,239.973846 289.941589,241.150818 289.945862,242.082306 
	C289.969391,247.202896 289.974854,252.323792 289.941467,257.444275 
	C289.934509,258.510223 290.323151,259.986511 288.527100,260.007294 
	C286.725616,260.028168 287.073212,258.561462 287.067108,257.481415 
	C287.038055,252.360870 287.053436,247.240067 287.056854,241.688385 
z"/>
<path fill="#F5EDEB" opacity="1.000000" stroke="none" 
	d="
M267.926605,257.796753 
	C265.664459,251.395828 266.562897,250.096939 272.088623,250.943817 
	C274.096466,251.251541 275.676208,252.033493 275.833740,254.212433 
	C276.002838,256.552155 274.221161,257.327698 272.343445,257.667114 
	C271.050781,257.900757 269.696442,257.793091 267.926605,257.796753 
z"/>
<path fill="#EEE7E5" opacity="1.000000" stroke="none" 
	d="
M270.710541,241.844604 
	C273.724487,242.067307 276.082184,242.904984 275.186981,245.966858 
	C274.214050,249.294724 270.954712,248.620377 268.496582,248.425964 
	C265.290344,248.172348 266.861450,245.399292 266.730804,243.751663 
	C266.512604,240.999741 268.833984,242.062134 270.710541,241.844604 
z"/>
<path fill="#F7EFED" opacity="1.000000" stroke="none" 
	d="
M185.085587,244.978699 
	C185.156601,239.478668 188.886200,242.326920 190.926132,242.025711 
	C193.023727,241.715988 194.324554,243.248886 194.113968,245.481232 
	C193.785324,248.964951 191.093109,248.732437 188.567429,249.001053 
	C185.687088,249.307388 184.623749,248.209122 185.085587,244.978699 
z"/>
<path fill="#F5EDEB" opacity="1.000000" stroke="none" 
	d="
M135.791962,245.954819 
	C136.963852,242.282837 139.368042,241.281006 142.522446,241.887604 
	C145.678665,242.494568 146.628860,244.991714 146.916687,247.760239 
	C147.086563,249.394196 147.094147,251.104660 146.804276,252.713974 
	C146.253387,255.772598 144.600693,257.918762 141.168335,257.909454 
	C138.044037,257.901001 136.373260,256.108429 135.627777,253.202011 
	C135.036392,250.896500 134.981445,248.624069 135.791962,245.954819 
z"/>
<path fill="#E9E1E0" opacity="1.000000" stroke="none" 
	d="
M214.898575,247.208191 
	C218.116989,254.140823 212.844940,251.398193 210.065384,252.152603 
	C210.140793,248.777130 211.827774,246.395462 212.560028,243.442337 
	C214.389420,244.294250 214.045532,245.891632 214.898575,247.208191 
z"/>
<path fill="#E7DFDE" opacity="1.000000" stroke="none" 
	d="
M363.711426,248.775848 
	C364.219147,254.699554 360.131561,250.766373 357.438995,252.949112 
	C358.926178,248.868317 359.922882,246.133301 360.974854,243.246704 
	C362.847595,244.718964 362.722473,246.782578 363.711426,248.775848 
z"/>
</svg>